<svg width="138" height="72" viewBox="0 0 138 72" fill="none" xmlns="http://www.w3.org/2000/svg">
<path d="M4.99715 61.5078H8.1607C8.65648 61.5078 8.9083 61.4688 9.13652 61.375C9.67164 61.1562 10.0809 60.6875 10.0809 60.0312C10.0809 59.3828 9.68739 58.9062 9.13652 58.6797C8.9083 58.5859 8.66435 58.5391 8.15283 58.5391H4.99715V61.5078ZM4.99715 68H3.11633V56.7969H8.38891C9.26243 56.7969 9.8369 56.9453 10.3248 57.2266C11.3007 57.75 11.9381 58.7578 11.9381 60.0234C11.9381 61.2578 11.3007 62.2812 10.317 62.8125C9.82904 63.0859 9.26243 63.2422 8.38891 63.2422H4.99715V68ZM19.0064 56.7969H21.1077L24.1768 62.5391L27.1514 56.7969H29.2526L24.9165 64.8984C24.3814 65.8984 24.0351 66.4922 23.5314 67.0156C22.9491 67.6094 22.2409 68.0234 21.2965 68.0234C20.6276 68.0234 19.9744 67.8125 19.4078 67.4219L20.3679 65.8359C20.6512 66.0391 20.9817 66.1484 21.3201 66.1484C21.9812 66.1484 22.3825 65.7578 22.894 64.8438C22.9019 64.8125 23.1537 64.3672 23.1537 64.3672L19.0064 56.7969ZM36.8955 56.7969H37.9106L42.7976 62.6328L47.6767 56.7969H48.6998V68H46.8111V60.3516L42.7976 65.2188L38.7763 60.3516V68H36.8955V56.7969ZM56.7361 56.7891H66.274V58.5391H62.4416V68H60.5529V58.5391H56.7361V56.7891ZM82.1562 68V60.1797L75.3255 68H74.3025V56.7969H76.1912V64.6094C78.4655 62.0078 80.7398 59.3984 83.0219 56.7969H84.0449V68H82.1562ZM101.509 64.6719C101.509 65.9844 100.848 67.0234 99.8407 67.5703C99.3449 67.8438 98.7547 68 97.8733 68H92.7029V56.7969H100.486V58.5391H94.5838V61.3516H97.8733C98.7547 61.3516 99.3449 61.5078 99.8328 61.7891C100.848 62.3281 101.509 63.3984 101.509 64.6719ZM99.644 64.6719C99.644 63.9688 99.219 63.4609 98.6524 63.2188C98.4163 63.125 98.1566 63.0781 97.6529 63.0781H94.5838V66.2656H97.6451C98.1644 66.2656 98.4241 66.2188 98.6524 66.1172C99.2268 65.8828 99.644 65.3672 99.644 64.6719ZM109.648 56.7969H117.352V58.5312H111.536V60.9922H116.046V62.7109H111.536V66.2656H117.352V68H109.648V56.7969ZM125.003 56.7891H134.541V58.5391H130.708V68H128.819V58.5391H125.003V56.7891Z" fill="white"/>
<mask id="mask0_1_246" style="mask-type:luminance" maskUnits="userSpaceOnUse" x="0" y="0" width="138" height="48">
<path d="M138 0H0V48H138V0Z" fill="white"/>
</mask>
<g mask="url(#mask0_1_246)">
<path d="M0.154619 27.9141C0.400803 27.8561 24.9963 22.0348 43.5151 13.8807C45.5752 12.9737 47.2431 12.436 48.6481 12.1826C47.074 13.7572 37.814 17.6826 45.2096 18.3782C51.9954 19.0171 40.8172 27.0107 35.6929 29.9169C22.2142 34.1596 13.4663 35.8258 13.309 35.8554L13.4945 36.837C13.5404 36.8283 14.3239 36.6792 15.7417 36.3678C23.1718 34.7353 48.1134 28.622 76.7281 14.6516C80.7409 12.6924 84.016 11.6059 86.7724 11.2027C85.9643 15.3185 76.6083 24.4199 91.5501 26.7181C105.178 28.8141 77.8487 34.136 67.6632 36.8457C66.1942 37.2366 65.0813 37.5732 64.5001 37.8376C60.0031 39.8853 112.281 38.0434 135.659 37.9501C136.422 37.9768 137.2 37.9921 138 37.9921V36.9932C117.119 36.9932 109.723 27.5135 103.78 19.8965C97.6048 11.9808 92.727 5.72765 76.2844 13.7552C72.4637 15.6194 68.6012 17.3981 64.7 19.0901C61.2525 17.8721 59.1645 16.1203 57.3353 14.5826C53.9293 11.7194 51.4682 9.65037 43.2438 13.2724C24.7824 21.4005 0.245513 27.2085 0 27.2661L0.154619 27.9141Z" fill="#FDFDFD"/>
</g>
</svg>
